<?xml version="1.0" encoding="UTF-8" standalone="no"?><!DOCTYPE svg PUBLIC "-//W3C//DTD SVG 1.1//EN" "http://www.w3.org/Graphics/SVG/1.1/DTD/svg11.dtd"><svg width="100%" height="100%" viewBox="0 0 2442 463" version="1.1" xmlns="http://www.w3.org/2000/svg" xmlns:xlink="http://www.w3.org/1999/xlink" xml:space="preserve" xmlns:serif="http://www.serif.com/" style="fill-rule:evenodd;clip-rule:evenodd;stroke-linejoin:round;stroke-miterlimit:2;"><g><path d="M266.399,39.583c12.222,0 23.055,3.334 32.5,10c9.444,6.667 17.43,14.931 23.958,24.792c6.528,9.861 11.458,20.417 14.792,31.667c3.333,11.25 5,21.597 5,31.041c-0,35.556 -2.639,68.264 -7.917,98.125c-5.278,29.861 -12.222,56.806 -20.833,80.834c-8.611,24.027 -18.403,45.208 -29.375,63.541c-10.972,18.334 -22.153,33.611 -33.542,45.834c-11.389,12.222 -22.569,21.458 -33.542,27.708c-10.972,6.25 -20.625,9.375 -28.958,9.375c-9.444,-0 -18.75,-1.111 -27.917,-3.333c-9.166,-2.223 -17.291,-5.07 -24.375,-8.542c-7.083,-3.472 -12.847,-7.5 -17.291,-12.083c-4.445,-4.584 -6.667,-9.236 -6.667,-13.959c0,-12.222 3.542,-24.722 10.625,-37.5c7.083,-12.777 15.625,-24.305 25.625,-34.583c10,-10.278 20.347,-18.681 31.042,-25.208c10.694,-6.528 19.653,-9.792 26.875,-9.792c1.944,0 3.889,0.486 5.833,1.458c1.945,0.973 3.611,2.014 5,3.125c1.389,1.111 2.361,2.292 2.917,3.542c0.555,1.25 0.416,2.014 -0.417,2.292c-7.5,3.333 -15.694,7.986 -24.583,13.958c-8.889,5.972 -17.084,12.361 -24.584,19.167c-7.5,6.805 -13.819,13.75 -18.958,20.833c-5.139,7.083 -7.708,13.403 -7.708,18.958c-0,9.723 1.458,16.598 4.375,20.625c2.916,4.028 7.569,6.042 13.958,6.042c10.833,0.556 21.111,-2.292 30.833,-8.542c9.723,-6.25 18.82,-14.861 27.292,-25.833c8.472,-10.972 16.32,-23.889 23.542,-38.75c7.222,-14.861 13.68,-30.556 19.375,-47.083c5.694,-16.528 10.694,-33.473 15,-50.834c4.305,-17.361 7.847,-34.166 10.625,-50.416c2.778,-16.25 4.653,-31.389 5.625,-45.417c0.972,-14.028 1.18,-26.042 0.625,-36.042c-0.556,-4.722 -1.459,-9.722 -2.709,-15c-1.25,-5.277 -2.777,-10.208 -4.583,-14.791c-1.805,-4.584 -3.958,-8.403 -6.458,-11.459c-2.5,-3.055 -5.278,-4.583 -8.334,-4.583c-8.055,-0 -17.43,4.167 -28.125,12.5c-10.694,8.333 -21.736,19.097 -33.125,32.292c-11.388,13.194 -22.638,27.777 -33.75,43.75c-11.111,15.972 -20.972,31.597 -29.583,46.875c-8.611,15.277 -15.625,29.166 -21.042,41.666c-5.416,12.5 -8.125,21.945 -8.125,28.334c0,1.111 -0.416,5.555 -1.25,13.333c-0.833,7.778 -1.805,17.083 -2.916,27.917c-1.111,10.833 -2.084,22.43 -2.917,34.791c-0.833,12.361 -1.25,23.542 -1.25,33.542c-3.611,0.833 -7.708,0.972 -12.292,0.417c-4.583,-0.556 -8.958,-1.875 -13.125,-3.959c-4.166,-2.083 -7.638,-5 -10.416,-8.75c-2.778,-3.75 -4.167,-8.541 -4.167,-14.375c0,-11.666 0.695,-25.833 2.083,-42.5c1.389,-16.666 3.056,-34.444 5,-53.333c1.945,-18.889 4.098,-38.472 6.459,-58.75c2.361,-20.278 4.583,-40 6.666,-59.167c2.084,-19.166 3.82,-37.222 5.209,-54.166c1.389,-16.945 2.083,-31.667 2.083,-44.167c1.111,-1.111 4.097,-1.528 8.958,-1.25c4.862,0.278 9.931,1.111 15.209,2.5c5.278,1.389 10,3.472 14.166,6.25c4.167,2.778 6.25,6.111 6.25,10c0,5.278 -0.763,12.778 -2.291,22.5c-1.528,9.722 -3.125,20.556 -4.792,32.5c-1.667,11.944 -3.264,24.444 -4.792,37.5c-1.527,13.056 -2.291,25.417 -2.291,37.083c-0,3.611 0.625,5.625 1.875,6.042c1.25,0.417 2.569,-0.903 3.958,-3.958c3.333,-8.334 7.5,-18.125 12.5,-29.375c5,-11.25 10.695,-22.986 17.083,-35.209c6.389,-12.222 13.403,-24.305 21.042,-36.25c7.639,-11.944 15.764,-22.639 24.375,-32.083c8.611,-9.444 17.708,-17.083 27.292,-22.917c9.583,-5.833 19.375,-8.75 29.375,-8.75Z" style="fill-rule:nonzero;"/><path d="M533.482,259.583c-6.389,10.834 -14.028,19.653 -22.917,26.459c-8.888,6.805 -18.194,12.708 -27.916,17.708c-1.389,1.667 -3.195,5.139 -5.417,10.417c-2.222,5.277 -4.93,11.389 -8.125,18.333c-3.194,6.944 -6.944,14.236 -11.25,21.875c-4.305,7.639 -9.305,14.653 -15,21.042c-5.694,6.389 -12.222,11.666 -19.583,15.833c-7.361,4.167 -15.486,6.25 -24.375,6.25c-5.834,-0 -11.597,-1.25 -17.292,-3.75c-5.694,-2.5 -10.694,-6.181 -15,-11.042c-4.305,-4.861 -7.778,-10.694 -10.417,-17.5c-2.638,-6.805 -3.958,-14.514 -3.958,-23.125c0,-2.222 0.347,-6.805 1.042,-13.75c0.694,-6.944 2.014,-14.236 3.958,-21.875c1.945,-7.639 4.653,-14.514 8.125,-20.625c3.472,-6.111 7.986,-9.583 13.542,-10.416c2.222,-0.278 3.68,-0.556 4.375,-0.834c0.694,-0.277 0.972,-0.764 0.833,-1.458c-0.139,-0.694 -0.625,-1.736 -1.458,-3.125c-0.834,-1.389 -1.667,-3.333 -2.5,-5.833c-1.389,-3.889 -3.264,-8.959 -5.625,-15.209c-2.361,-6.25 -3.542,-14.93 -3.542,-26.041c0,-3.056 1.32,-8.195 3.958,-15.417c2.639,-7.222 6.459,-14.514 11.459,-21.875c5,-7.361 11.18,-13.889 18.541,-19.583c7.362,-5.695 15.764,-8.542 25.209,-8.542c10.278,-0 19.444,2.361 27.5,7.083c8.055,4.723 14.791,10.834 20.208,18.334c5.417,7.5 9.514,15.972 12.292,25.416c2.778,9.445 4.028,18.75 3.75,27.917c-0.278,9.444 -1.111,17.778 -2.5,25c-1.389,7.222 -2.361,12.222 -2.917,15c-0.555,2.222 0,3.472 1.667,3.75c2.5,-0.278 5.486,-1.389 8.958,-3.333c3.472,-1.945 7.014,-4.236 10.625,-6.875c3.611,-2.639 6.875,-5.278 9.792,-7.917c2.916,-2.639 5.069,-4.792 6.458,-6.458c0.833,-1.667 2.292,-2.084 4.375,-1.25c2.083,0.833 3.125,2.639 3.125,5.416Zm-71.667,30.834c1.945,-0 3.75,-1.736 5.417,-5.209c1.667,-3.472 3.125,-8.055 4.375,-13.75c1.25,-5.694 2.222,-12.014 2.917,-18.958c0.694,-6.944 1.041,-13.75 1.041,-20.417c0,-6.389 -1.18,-12.569 -3.541,-18.541c-2.361,-5.973 -5.556,-11.181 -9.584,-15.625c-4.027,-4.445 -8.68,-7.986 -13.958,-10.625c-5.278,-2.639 -10.694,-3.959 -16.25,-3.959c-5,0 -9.305,1.459 -12.917,4.375c-3.611,2.917 -6.666,6.528 -9.166,10.834c-2.5,4.305 -4.306,8.958 -5.417,13.958c-1.111,5 -1.667,9.722 -1.667,14.167c0,19.166 5.348,34.583 16.042,46.25c10.695,11.666 24.931,17.5 42.708,17.5Zm-5.833,21.666c-9.167,-0.277 -17.5,-1.805 -25,-4.583c-7.5,-2.778 -12.778,-4.167 -15.833,-4.167c-3.056,0.556 -5.903,3.75 -8.542,9.584c-2.639,5.833 -4.792,12.5 -6.458,20c-1.667,7.5 -2.431,14.861 -2.292,22.083c0.139,7.222 1.458,12.361 3.958,15.417c3.056,4.722 7.362,6.389 12.917,5c3.889,-1.945 8.125,-5.278 12.708,-10c4.584,-4.723 8.959,-10.139 13.125,-16.25c4.167,-6.111 7.709,-12.431 10.625,-18.959c2.917,-6.527 4.514,-12.569 4.792,-18.125Zm-37.083,-169.583c-5.556,-1.667 -8.403,-3.75 -8.542,-6.25c-0.139,-2.5 0.208,-4.722 1.042,-6.667c1.389,-3.611 4.791,-8.333 10.208,-14.166c5.417,-5.834 11.25,-11.25 17.5,-16.25c6.25,-5 12.014,-9.028 17.292,-12.084c5.278,-3.055 8.611,-3.889 10,-2.5c1.111,1.111 2.222,2.639 3.333,4.584c1.111,1.944 2.083,4.027 2.917,6.25c0.833,2.222 1.528,4.514 2.083,6.875c0.556,2.361 0.695,4.514 0.417,6.458l-56.25,33.75Z" style="fill-rule:nonzero;"/><path d="M575.982,150.833c0.833,1.389 0.486,5.278 -1.042,11.667c-1.527,6.389 -3.541,13.542 -6.041,21.458c-2.5,7.917 -5.209,15.695 -8.125,23.334c-2.917,7.639 -5.486,13.402 -7.709,17.291c-0.555,0.834 -0.625,1.25 -0.208,1.25c0.417,0 0.625,0.278 0.625,0.834c3.056,3.611 6.597,6.527 10.625,8.75c4.028,2.222 7.917,4.583 11.667,7.083c3.75,2.5 7.222,5.417 10.416,8.75c3.195,3.333 5.625,7.778 7.292,13.333c1.667,5.556 1.667,13.056 0,22.5c-1.667,9.445 -3.958,19.792 -6.875,31.042c-2.917,11.25 -6.111,22.639 -9.583,34.167c-3.472,11.527 -6.32,22.014 -8.542,31.458c-2.222,9.444 -3.333,17.153 -3.333,23.125c-0,5.972 1.944,8.958 5.833,8.958c2.778,0 6.528,-3.055 11.25,-9.166c4.722,-6.111 9.861,-14.028 15.417,-23.75c5.555,-9.723 11.319,-20.625 17.291,-32.709c5.973,-12.083 11.459,-24.097 16.459,-36.041c5,-11.945 9.375,-23.195 13.125,-33.75c3.75,-10.556 6.319,-19.167 7.708,-25.834c0,-0.833 0.833,-1.458 2.5,-1.875c1.667,-0.416 3.403,-0.416 5.208,0c1.806,0.417 3.334,1.32 4.584,2.709c1.25,1.389 1.458,3.333 0.625,5.833c-1.667,6.111 -4.445,14.861 -8.334,26.25c-3.888,11.389 -8.472,23.819 -13.75,37.292c-5.277,13.472 -11.041,27.222 -17.291,41.25c-6.25,14.027 -12.57,26.736 -18.959,38.125c-6.388,11.389 -12.777,20.694 -19.166,27.916c-6.389,7.223 -12.222,10.834 -17.5,10.834c-3.889,-0 -8.264,-0.625 -13.125,-1.875c-4.861,-1.25 -9.375,-3.195 -13.542,-5.834c-4.167,-2.639 -7.708,-6.18 -10.625,-10.625c-2.917,-4.444 -4.375,-10 -4.375,-16.666c0,-9.723 1.389,-20.486 4.167,-32.292c2.778,-11.806 5.903,-23.125 9.375,-33.958c3.472,-10.834 6.875,-20.486 10.208,-28.959c3.333,-8.472 5.417,-14.375 6.25,-17.708c1.389,-3.889 1.806,-7.5 1.25,-10.833c-0.555,-3.334 -3.055,-5.973 -7.5,-7.917c-1.111,-0.833 -4.653,-2.917 -10.625,-6.25c-5.972,-3.333 -12.292,-7.569 -18.958,-12.708c-6.667,-5.139 -12.709,-10.764 -18.125,-16.875c-5.417,-6.111 -8.125,-12.361 -8.125,-18.75c0.278,-4.723 2.014,-12.014 5.208,-21.875c3.195,-9.861 7.431,-19.931 12.708,-30.209c5.278,-10.277 11.32,-19.583 18.125,-27.916c6.806,-8.334 13.82,-13.195 21.042,-14.584c2.778,0 5.486,0.764 8.125,2.292c2.639,1.528 5,3.403 7.083,5.625c2.084,2.222 3.75,4.722 5,7.5c1.25,2.778 2.014,5.556 2.292,8.333Zm-43.75,57.5c0,0.556 0.486,1.459 1.458,2.709c0.973,1.25 2.084,2.291 3.334,3.125c1.25,0.833 2.569,1.25 3.958,1.25c1.389,-0 2.639,-0.973 3.75,-2.917c1.667,-3.056 2.778,-5.903 3.333,-8.542c0.556,-2.639 1.25,-5.902 2.084,-9.791c1.944,-9.723 1.736,-15.486 -0.625,-17.292c-2.361,-1.806 -4.653,-0.486 -6.875,3.958c-1.945,3.889 -3.681,7.709 -5.209,11.459c-1.527,3.75 -3.263,9.097 -5.208,16.041Z" style="fill-rule:nonzero;"/><path d="M672.649,152.917c-1.667,-1.389 -2.639,-4.514 -2.917,-9.375c-0.278,-4.861 0,-10 0.833,-15.417c0.834,-5.417 2.084,-10.486 3.75,-15.208c1.667,-4.723 3.473,-7.778 5.417,-9.167c4.167,-1.389 8.681,-1.806 13.542,-1.25c4.861,0.556 9.236,1.875 13.125,3.958c3.889,2.084 6.875,4.861 8.958,8.334c2.083,3.472 2.57,7.43 1.458,11.875c-0.277,1.389 -0.972,3.75 -2.083,7.083c-1.111,3.333 -2.292,6.667 -3.542,10c-1.25,3.333 -2.5,6.458 -3.75,9.375c-1.25,2.917 -2.291,4.653 -3.125,5.208c-0.833,0.834 -2.708,1.32 -5.625,1.459c-2.916,0.139 -6.111,-0.07 -9.583,-0.625c-3.472,-0.556 -6.736,-1.389 -9.792,-2.5c-3.055,-1.111 -5.277,-2.361 -6.666,-3.75Zm89.166,92.916c0.556,0.556 0.695,1.528 0.417,2.917c-0.278,1.389 -0.555,2.361 -0.833,2.917c-2.222,5.833 -4.792,12.777 -7.709,20.833c-2.916,8.056 -6.041,16.458 -9.375,25.208c-3.333,8.75 -7.013,17.5 -11.041,26.25c-4.028,8.75 -8.195,16.528 -12.5,23.334c-4.306,6.805 -8.889,12.361 -13.75,16.666c-4.861,4.306 -9.931,6.459 -15.209,6.459c-7.777,-0 -14.583,-1.945 -20.416,-5.834c-5.834,-3.889 -10.695,-8.819 -14.584,-14.791c-3.888,-5.973 -6.805,-12.57 -8.75,-19.792c-1.944,-7.222 -3.055,-14.167 -3.333,-20.833c0,-0.278 0.139,-2.848 0.417,-7.709c0.278,-4.861 0.764,-10.972 1.458,-18.333c0.695,-7.361 1.597,-15.278 2.708,-23.75c1.112,-8.472 2.362,-16.528 3.75,-24.167c1.389,-7.639 3.056,-14.166 5,-19.583c1.945,-5.417 4.028,-8.681 6.25,-9.792c1.945,-2.777 4.792,-3.889 8.542,-3.333c3.75,0.556 7.5,2.153 11.25,4.792c3.75,2.639 7.014,5.833 9.792,9.583c2.778,3.75 4.166,7.292 4.166,10.625c0.278,1.111 0.209,3.958 -0.208,8.542c-0.417,4.583 -1.042,10.208 -1.875,16.875c-0.833,6.666 -1.736,13.819 -2.708,21.458c-0.972,7.639 -1.875,14.931 -2.709,21.875c-0.833,6.944 -1.527,13.125 -2.083,18.542c-0.555,5.416 -0.694,9.097 -0.417,11.041c0,1.667 0.209,3.959 0.625,6.875c0.417,2.917 1.25,5.625 2.5,8.125c1.25,2.5 2.917,4.445 5,5.834c2.084,1.389 4.792,1.389 8.125,-0c1.667,-0.278 3.959,-2.848 6.875,-7.709c2.917,-4.861 6.112,-10.902 9.584,-18.125c3.472,-7.222 7.014,-15 10.625,-23.333c3.611,-8.333 7.014,-16.111 10.208,-23.333c3.195,-7.223 5.972,-13.473 8.333,-18.75c2.362,-5.278 3.959,-8.473 4.792,-9.584c0.556,-1.111 1.597,-1.527 3.125,-1.25c1.528,0.278 2.847,0.695 3.958,1.25Z" style="fill-rule:nonzero;"/><path d="M1032.23,259.167c-3.333,5 -7.361,11.18 -12.083,18.541c-4.722,7.361 -10,15.209 -15.834,23.542c-5.833,8.333 -12.083,16.528 -18.75,24.583c-6.666,8.056 -13.68,15.417 -21.041,22.084c-7.361,6.666 -14.931,12.014 -22.709,16.041c-7.777,4.028 -15.555,6.042 -23.333,6.042c-7.5,0 -15.139,-1.528 -22.917,-4.583c-7.777,-3.056 -14.791,-7.292 -21.041,-12.709c-6.25,-5.416 -11.32,-11.805 -15.209,-19.166c-3.888,-7.361 -5.833,-15.209 -5.833,-23.542c0,-8.611 0.764,-17.778 2.292,-27.5c1.528,-9.722 3.819,-19.306 6.875,-28.75c3.055,-9.444 6.875,-18.542 11.458,-27.292c4.583,-8.75 10.07,-16.458 16.458,-23.125c6.389,-6.666 13.542,-11.944 21.459,-15.833c7.916,-3.889 16.875,-5.833 26.875,-5.833c1.111,-0 3.403,0.625 6.875,1.875c3.472,1.25 7.153,3.264 11.041,6.041c3.889,2.778 7.57,6.459 11.042,11.042c3.472,4.583 5.903,10.208 7.292,16.875c0.833,7.222 -1.25,13.958 -6.25,20.208c-5,6.25 -11.25,11.598 -18.75,16.042c-7.5,4.444 -15.209,7.986 -23.125,10.625c-7.917,2.639 -14.375,3.958 -19.375,3.958c-2.5,0 -4.514,2.431 -6.042,7.292c-1.528,4.861 -2.639,10.486 -3.333,16.875c-0.695,6.389 -1.111,12.569 -1.25,18.542c-0.139,5.972 -0.209,10.208 -0.209,12.708c0,5.833 2.084,11.111 6.25,15.833c4.167,4.723 10.834,7.084 20,7.084c5.834,-0 12.084,-2.084 18.75,-6.25c6.667,-4.167 13.334,-9.375 20,-15.625c6.667,-6.25 13.056,-13.056 19.167,-20.417c6.111,-7.361 11.597,-14.236 16.458,-20.625c4.862,-6.389 8.82,-11.875 11.875,-16.458c3.056,-4.584 4.862,-7.153 5.417,-7.709c1.111,-0.277 2.57,-0.833 4.375,-1.666c1.806,-0.834 3.611,-1.667 5.417,-2.5c1.805,-0.834 3.541,-1.25 5.208,-1.25c1.667,-0 3.056,0.694 4.167,2.083l-1.667,2.917Zm-75,-34.584c0.833,-5 0,-9.305 -2.5,-12.916c-2.5,-3.611 -6.528,-5.139 -12.083,-4.584c-9.167,2.778 -16.597,7.57 -22.292,14.375c-5.694,6.806 -9.653,13.959 -11.875,21.459c-0.555,2.222 -0.417,3.819 0.417,4.791c0.833,0.973 1.944,1.667 3.333,2.084c1.389,0.416 2.917,0.555 4.583,0.416c1.667,-0.139 2.917,-0.208 3.75,-0.208c8.889,-1.667 16.806,-5.139 23.75,-10.417c6.945,-5.277 11.25,-10.277 12.917,-15Zm-43.333,-97.916c-5.556,-1.667 -8.403,-3.75 -8.542,-6.25c-0.139,-2.5 0.208,-4.723 1.042,-6.667c1.389,-3.611 4.791,-8.333 10.208,-14.167c5.417,-5.833 11.25,-11.25 17.5,-16.25c6.25,-5 12.014,-9.027 17.292,-12.083c5.278,-3.056 8.611,-3.889 10,-2.5c1.111,1.111 2.222,2.639 3.333,4.583c1.111,1.945 2.083,4.028 2.917,6.25c0.833,2.223 1.528,4.514 2.083,6.875c0.556,2.361 0.695,4.514 0.417,6.459l-56.25,33.75Z" style="fill:#668f7d;fill-rule:nonzero;"/><path d="M1081.82,162.917c4.445,-0 8.264,2.014 11.459,6.041c3.194,4.028 5.625,8.681 7.291,13.959c1.667,5.277 2.5,10.555 2.5,15.833c0,5.278 -0.833,9.306 -2.5,12.083c-3.611,5.556 -6.25,8.473 -7.916,8.75c-1.667,0.278 -2.917,-0.694 -3.75,-2.916c-0.834,-2.223 -1.597,-4.931 -2.292,-8.125c-0.694,-3.195 -1.736,-5.486 -3.125,-6.875c-0.833,-0.834 -3.542,0.208 -8.125,3.125c-4.583,2.916 -9.444,6.736 -14.583,11.458c-5.139,4.722 -9.792,9.861 -13.959,15.417c-4.166,5.555 -6.25,10.416 -6.25,14.583c0,6.944 1.875,13.889 5.625,20.833c3.75,6.945 7.987,13.195 12.709,18.75c5.278,6.667 11.389,13.195 18.333,19.584c0.833,-0.278 2.847,-1.667 6.042,-4.167c3.194,-2.5 6.944,-5.625 11.25,-9.375c4.305,-3.75 8.889,-7.847 13.75,-12.292c4.861,-4.444 9.514,-8.611 13.958,-12.5c4.445,-3.889 8.403,-7.291 11.875,-10.208c3.472,-2.917 5.903,-4.653 7.292,-5.208c0.555,-0.278 1.319,-0 2.291,0.833c0.973,0.833 1.806,1.944 2.5,3.333c0.695,1.389 1.181,2.778 1.459,4.167c0.278,1.389 0.139,2.639 -0.417,3.75c-0.833,1.389 -4.167,4.375 -10,8.958c-5.833,4.584 -12.153,9.723 -18.958,15.417c-6.806,5.694 -13.125,11.319 -18.959,16.875c-5.833,5.556 -9.305,10 -10.416,13.333c-0,1.389 0.069,2.57 0.208,3.542c0.139,0.972 0.486,2.014 1.042,3.125c7.222,10.833 10.903,23.056 11.041,36.667c0.139,13.611 -2.569,26.458 -8.125,38.541c-5.555,12.084 -13.541,22.292 -23.958,30.625c-10.417,8.334 -22.43,12.5 -36.042,12.5c-4.166,0 -8.75,-0.902 -13.75,-2.708c-5,-1.806 -9.722,-4.514 -14.166,-8.125c-4.445,-3.611 -8.125,-7.847 -11.042,-12.708c-2.917,-4.861 -4.514,-10.486 -4.792,-16.875c0,-4.167 1.32,-8.889 3.959,-14.167c2.639,-5.278 6.041,-10.486 10.208,-15.625c4.167,-5.139 8.82,-10.208 13.958,-15.208c5.139,-5 10.07,-9.445 14.792,-13.334c4.167,-3.333 7.639,-6.18 10.417,-8.541c2.778,-2.361 4.791,-4.514 6.041,-6.459c1.25,-1.944 1.667,-3.958 1.25,-6.041c-0.416,-2.084 -1.597,-4.653 -3.541,-7.709c-2.222,-3.055 -5.417,-7.5 -9.584,-13.333c-4.166,-5.833 -8.333,-12.222 -12.5,-19.167c-4.166,-6.944 -7.847,-13.958 -11.041,-21.041c-3.195,-7.084 -4.792,-13.403 -4.792,-18.959c0,-8.333 2.5,-17.222 7.5,-26.666c5,-9.445 11.181,-18.125 18.542,-26.042c7.361,-7.917 15.278,-14.514 23.75,-19.792c8.472,-5.277 16.319,-7.916 23.541,-7.916Zm-24.166,182.916c-2.222,0 -5.972,1.945 -11.25,5.834c-5.278,3.889 -10.625,8.611 -16.042,14.166c-5.417,5.556 -10.208,11.389 -14.375,17.5c-4.167,6.111 -6.25,11.389 -6.25,15.834c0,3.611 1.389,6.25 4.167,7.916c2.778,1.667 6.111,2.5 10,2.5c6.944,0 13.611,-1.805 20,-5.416c6.389,-3.611 11.597,-8.403 15.625,-14.375c4.028,-5.973 6.389,-12.709 7.083,-20.209c0.695,-7.5 -1.18,-15 -5.625,-22.5c-0.278,-0.555 -0.764,-0.902 -1.458,-1.041c-0.695,-0.139 -1.32,-0.209 -1.875,-0.209Z" style="fill:#668f7d;fill-rule:nonzero;"/><path d="M1600.57,452.5c2.223,3.056 0.417,4.722 -5.416,5c-5.834,0.278 -13.056,-0.417 -21.667,-2.083c-8.611,-1.667 -17.153,-4.167 -25.625,-7.5c-8.472,-3.334 -14.097,-7.223 -16.875,-11.667c-6.944,-11.944 -11.736,-27.222 -14.375,-45.833c-2.639,-18.611 -3.68,-38.611 -3.125,-60c0.556,-21.389 2.431,-43.334 5.625,-65.834c3.195,-22.5 7.014,-43.75 11.458,-63.75c0.556,-2.222 -0.069,-3.264 -1.875,-3.125c-1.805,0.139 -2.986,0.625 -3.541,1.459c-5,6.666 -10.625,15.625 -16.875,26.875c-6.25,11.25 -12.847,23.402 -19.792,36.458c-6.944,13.056 -13.819,26.181 -20.625,39.375c-6.805,13.194 -13.264,25.139 -19.375,35.833c-6.111,10.695 -11.597,19.445 -16.458,26.25c-4.861,6.806 -8.681,10.209 -11.459,10.209c-5.277,-0 -10.347,-0.903 -15.208,-2.709c-4.861,-1.805 -9.167,-4.097 -12.917,-6.875c-3.75,-2.777 -6.736,-5.902 -8.958,-9.375c-2.222,-3.472 -3.194,-6.875 -2.917,-10.208c-0.277,-3.333 0.07,-9.583 1.042,-18.75c0.972,-9.167 2.222,-19.792 3.75,-31.875c1.528,-12.083 3.333,-24.861 5.417,-38.333c2.083,-13.473 4.166,-26.25 6.25,-38.334c2.083,-12.083 4.028,-22.708 5.833,-31.875c1.806,-9.166 3.264,-15.416 4.375,-18.75c0.556,-2.777 0,-3.889 -1.667,-3.333c-1.666,0.556 -2.777,1.528 -3.333,2.917c-10.555,18.055 -20.417,36.736 -29.583,56.041c-9.167,19.306 -17.57,38.125 -25.209,56.459c-7.638,18.333 -14.513,35.694 -20.625,52.083c-6.111,16.389 -11.527,30.694 -16.25,42.917c-4.722,12.222 -8.75,21.944 -12.083,29.166c-3.333,7.223 -6.111,10.834 -8.333,10.834c-10.834,-0 -20.209,-1.25 -28.125,-3.75c-7.917,-2.5 -14.375,-5.625 -19.375,-9.375c-5,-3.75 -8.75,-7.778 -11.25,-12.084c-2.5,-4.305 -3.75,-8.402 -3.75,-12.291c-0,-10 1.041,-21.32 3.125,-33.959c2.083,-12.639 4.722,-25.972 7.916,-40c3.195,-14.027 6.598,-28.402 10.209,-43.125c3.611,-14.722 7.014,-29.166 10.208,-43.333c3.195,-14.167 5.903,-27.569 8.125,-40.208c2.222,-12.639 3.472,-23.959 3.75,-33.959c3.889,-1.944 8.056,-2.569 12.5,-1.875c4.445,0.695 8.889,2.361 13.333,5c4.445,2.639 8.681,6.042 12.709,10.209c4.028,4.166 7.708,8.75 11.041,13.75c-0.277,14.166 -1.736,28.889 -4.375,44.166c-2.638,15.278 -5.625,30.695 -8.958,46.25c-3.333,15.556 -6.667,30.973 -10,46.25c-3.333,15.278 -5.972,30.139 -7.917,44.584c-0.277,3.055 0.209,4.722 1.459,5c1.25,0.277 2.43,-0.973 3.541,-3.75c-1.666,3.611 -1.319,2.639 1.042,-2.917c2.361,-5.556 5.972,-14.167 10.833,-25.833c4.862,-11.667 10.764,-25.486 17.709,-41.459c6.944,-15.972 14.375,-32.639 22.291,-50c7.917,-17.361 15.973,-34.514 24.167,-51.458c8.195,-16.944 15.972,-32.083 23.333,-45.417c7.362,-13.333 14.098,-24.166 20.209,-32.5c6.111,-8.333 10.833,-12.5 14.166,-12.5c4.167,0 8.959,0.695 14.375,2.084c5.417,1.389 10.487,3.194 15.209,5.416c4.722,2.223 8.541,4.723 11.458,7.5c2.917,2.778 3.958,5.556 3.125,8.334c-5.833,19.166 -10.972,38.958 -15.417,59.375c-4.444,20.416 -8.402,39.791 -11.875,58.125c-3.472,18.333 -6.388,34.722 -8.75,49.166c-2.361,14.445 -4.097,25.417 -5.208,32.917c-0.833,3.611 -0.486,5.833 1.042,6.667c1.528,0.833 3.125,-0.695 4.791,-4.584c5,-9.722 11.042,-21.041 18.125,-33.958c7.084,-12.917 14.584,-26.181 22.5,-39.792c7.917,-13.611 15.973,-27.014 24.167,-40.208c8.195,-13.194 15.833,-25.069 22.917,-35.625c7.083,-10.556 13.264,-19.028 18.541,-25.417c5.278,-6.389 8.889,-9.722 10.834,-10c1.389,0 3.819,0.764 7.291,2.292c3.473,1.528 7.014,3.472 10.625,5.833c3.612,2.361 6.806,5.07 9.584,8.125c2.778,3.056 4.166,6.25 4.166,9.584c0,5.833 -1.25,15.139 -3.75,27.916c-2.5,12.778 -5.208,27.57 -8.125,44.375c-2.916,16.806 -5.347,35.07 -7.291,54.792c-1.945,19.722 -2.361,39.653 -1.25,59.792c1.111,20.139 4.305,39.722 9.583,58.75c5.278,19.027 13.889,36.18 25.833,51.458Z" style="fill-rule:nonzero;"/><path d="M1719.73,235.833c0.833,-1.944 1.528,-4.166 2.083,-6.666c0.556,-2.5 1.32,-4.931 2.292,-7.292c0.972,-2.361 2.222,-4.306 3.75,-5.833c1.528,-1.528 3.542,-2.292 6.042,-2.292c3.333,-0.556 6.944,-0.139 10.833,1.25c3.889,1.389 7.5,3.194 10.833,5.417c3.334,2.222 6.181,4.791 8.542,7.708c2.361,2.917 3.542,5.764 3.542,8.542c0.278,-1.667 -0.417,1.041 -2.084,8.125c-1.666,7.083 -3.819,16.458 -6.458,28.125c-2.639,11.666 -5.417,24.652 -8.333,38.958c-2.917,14.306 -5.347,27.778 -7.292,40.417c-1.944,12.639 -3.125,23.333 -3.542,32.083c-0.416,8.75 0.625,13.403 3.125,13.958c2.223,0.278 5.209,-3.125 8.959,-10.208c3.75,-7.083 7.986,-16.042 12.708,-26.875c4.722,-10.833 9.514,-22.708 14.375,-35.625c4.861,-12.917 9.514,-25.069 13.958,-36.458c4.445,-11.389 8.264,-21.181 11.459,-29.375c3.194,-8.195 5.486,-12.986 6.875,-14.375c0.555,-0.556 1.736,-0.278 3.541,0.833c1.806,1.111 2.57,2.083 2.292,2.917c-3.611,10.555 -7.292,22.152 -11.042,34.791c-3.75,12.639 -7.638,25.348 -11.666,38.125c-4.028,12.778 -8.125,25.278 -12.292,37.5c-4.167,12.223 -8.333,23.195 -12.5,32.917c-4.167,9.722 -8.333,17.778 -12.5,24.167c-4.167,6.389 -8.194,10.139 -12.083,11.25c-2.778,0.833 -7.084,0.416 -12.917,-1.25c-5.833,-1.667 -11.736,-4.584 -17.708,-8.75c-5.972,-4.167 -11.181,-9.584 -15.625,-16.25c-4.445,-6.667 -6.667,-14.445 -6.667,-23.334c0,-6.944 0.625,-14.514 1.875,-22.708c1.25,-8.194 2.708,-16.25 4.375,-24.167c1.667,-7.916 3.264,-15.416 4.792,-22.5c1.528,-7.083 2.708,-12.847 3.541,-17.291c0.278,-1.389 -0.208,-2.431 -1.458,-3.125c-1.25,-0.695 -2.292,-0.348 -3.125,1.041c-5.555,5.556 -11.389,13.264 -17.5,23.125c-6.111,9.861 -12.292,19.653 -18.542,29.375c-6.25,9.723 -12.5,18.195 -18.75,25.417c-6.25,7.222 -12.291,10.972 -18.125,11.25c-5.555,0.278 -10.625,-0.625 -15.208,-2.708c-4.583,-2.084 -8.542,-4.931 -11.875,-8.542c-3.333,-3.611 -5.903,-7.639 -7.708,-12.083c-1.806,-4.445 -2.709,-9.028 -2.709,-13.75c-0.277,-8.056 0.487,-18.264 2.292,-30.625c1.806,-12.361 5.208,-25.07 10.208,-38.125c5,-13.056 12.014,-25.695 21.042,-37.917c9.028,-12.222 20.625,-22.083 34.792,-29.583c2.5,-1.389 7.083,-1.32 13.75,0.208c6.666,1.528 13.333,3.819 20,6.875c6.666,3.056 12.43,6.667 17.291,10.833c4.862,4.167 6.875,8.056 6.042,11.667c0,0.833 0.347,1.319 1.042,1.458c0.694,0.139 1.18,-0.069 1.458,-0.625Zm-23.75,-1.666c-1.389,-1.667 -3.75,-2.5 -7.083,-2.5l-7.084,-0c-3.055,-0 -6.527,2.222 -10.416,6.666c-3.889,4.445 -7.778,10.139 -11.667,17.084c-3.889,6.944 -7.569,14.722 -11.042,23.333c-3.472,8.611 -6.388,17.153 -8.75,25.625c-2.361,8.472 -3.958,16.389 -4.791,23.75c-0.834,7.361 -0.417,13.125 1.25,17.292c1.111,2.5 3.472,2.222 7.083,-0.834c3.611,-3.055 7.778,-7.569 12.5,-13.541c4.722,-5.973 9.653,-12.917 14.792,-20.834c5.139,-7.916 9.861,-15.625 14.166,-23.125c4.306,-7.5 7.917,-14.305 10.834,-20.416c2.916,-6.111 4.514,-10.278 4.791,-12.5c0.556,-3.611 0.417,-7.084 -0.416,-10.417c-0.834,-3.333 -2.222,-6.528 -4.167,-9.583Z" style="fill-rule:nonzero;"/><path d="M1860.57,150.833c0.834,1.389 0.487,5.278 -1.041,11.667c-1.528,6.389 -3.542,13.542 -6.042,21.458c-2.5,7.917 -5.208,15.695 -8.125,23.334c-2.917,7.639 -5.486,13.402 -7.708,17.291c-0.556,0.834 -0.625,1.25 -0.209,1.25c0.417,0 0.625,0.278 0.625,0.834c3.056,3.611 6.598,6.527 10.625,8.75c4.028,2.222 7.917,4.583 11.667,7.083c3.75,2.5 7.222,5.417 10.417,8.75c3.194,3.333 5.625,7.778 7.291,13.333c1.667,5.556 1.667,13.056 0,22.5c-1.666,9.445 -3.958,19.792 -6.875,31.042c-2.916,11.25 -6.111,22.639 -9.583,34.167c-3.472,11.527 -6.319,22.014 -8.542,31.458c-2.222,9.444 -3.333,17.153 -3.333,23.125c0,5.972 1.945,8.958 5.833,8.958c2.778,0 6.528,-3.055 11.25,-9.166c4.723,-6.111 9.862,-14.028 15.417,-23.75c5.556,-9.723 11.32,-20.625 17.292,-32.709c5.972,-12.083 11.458,-24.097 16.458,-36.041c5,-11.945 9.375,-23.195 13.125,-33.75c3.75,-10.556 6.32,-19.167 7.708,-25.834c0,-0.833 0.834,-1.458 2.5,-1.875c1.667,-0.416 3.403,-0.416 5.209,0c1.805,0.417 3.333,1.32 4.583,2.709c1.25,1.389 1.458,3.333 0.625,5.833c-1.667,6.111 -4.444,14.861 -8.333,26.25c-3.889,11.389 -8.472,23.819 -13.75,37.292c-5.278,13.472 -11.042,27.222 -17.292,41.25c-6.25,14.027 -12.569,26.736 -18.958,38.125c-6.389,11.389 -12.778,20.694 -19.167,27.916c-6.389,7.223 -12.222,10.834 -17.5,10.834c-3.889,-0 -8.264,-0.625 -13.125,-1.875c-4.861,-1.25 -9.375,-3.195 -13.542,-5.834c-4.166,-2.639 -7.708,-6.18 -10.625,-10.625c-2.916,-4.444 -4.375,-10 -4.375,-16.666c0,-9.723 1.389,-20.486 4.167,-32.292c2.778,-11.806 5.903,-23.125 9.375,-33.958c3.472,-10.834 6.875,-20.486 10.208,-28.959c3.334,-8.472 5.417,-14.375 6.25,-17.708c1.389,-3.889 1.806,-7.5 1.25,-10.833c-0.555,-3.334 -3.055,-5.973 -7.5,-7.917c-1.111,-0.833 -4.652,-2.917 -10.625,-6.25c-5.972,-3.333 -12.291,-7.569 -18.958,-12.708c-6.667,-5.139 -12.708,-10.764 -18.125,-16.875c-5.417,-6.111 -8.125,-12.361 -8.125,-18.75c0.278,-4.723 2.014,-12.014 5.208,-21.875c3.195,-9.861 7.431,-19.931 12.709,-30.209c5.278,-10.277 11.319,-19.583 18.125,-27.916c6.805,-8.334 13.819,-13.195 21.041,-14.584c2.778,0 5.487,0.764 8.125,2.292c2.639,1.528 5,3.403 7.084,5.625c2.083,2.222 3.75,4.722 5,7.5c1.25,2.778 2.014,5.556 2.291,8.333Zm-43.75,57.5c0,0.556 0.487,1.459 1.459,2.709c0.972,1.25 2.083,2.291 3.333,3.125c1.25,0.833 2.57,1.25 3.958,1.25c1.389,-0 2.639,-0.973 3.75,-2.917c1.667,-3.056 2.778,-5.903 3.334,-8.542c0.555,-2.639 1.25,-5.902 2.083,-9.791c1.945,-9.723 1.736,-15.486 -0.625,-17.292c-2.361,-1.806 -4.653,-0.486 -6.875,3.958c-1.944,3.889 -3.68,7.709 -5.208,11.459c-1.528,3.75 -3.264,9.097 -5.209,16.041Z" style="fill-rule:nonzero;"/><path d="M2085.15,92.083c0.555,0.556 1.944,1.806 4.166,3.75c2.223,1.945 3.334,4.028 3.334,6.25c-7.778,1.667 -15.972,3.125 -24.584,4.375c-8.611,1.25 -16.805,2.361 -24.583,3.334c-7.778,0.972 -14.653,1.805 -20.625,2.5c-5.972,0.694 -10.347,1.319 -13.125,1.875c-1.389,0.277 -2.986,0.694 -4.792,1.25c-1.805,0.555 -3.263,2.361 -4.375,5.416c-0.555,1.945 -1.666,6.736 -3.333,14.375c-1.667,7.639 -3.542,17.014 -5.625,28.125c-2.083,11.111 -4.167,23.473 -6.25,37.084c-2.083,13.611 -4.028,27.361 -5.833,41.25c-1.806,13.889 -3.264,27.43 -4.375,40.625c-1.111,13.194 -1.667,24.93 -1.667,35.208l0,16.458c0,6.806 0.139,14.028 0.417,21.667c0.278,7.639 0.625,15.347 1.041,23.125c0.417,7.778 0.903,14.792 1.459,21.042c0.555,6.25 1.319,11.389 2.291,15.416c0.973,4.028 2.153,6.042 3.542,6.042c1.667,-0 4.167,-2.847 7.5,-8.542c3.333,-5.694 7.292,-13.194 11.875,-22.5c4.583,-9.305 9.445,-19.722 14.583,-31.25c5.139,-11.527 10.209,-23.194 15.209,-35c5,-11.805 9.722,-23.055 14.166,-33.75c4.445,-10.694 8.334,-19.861 11.667,-27.5c3.333,-7.639 5.833,-13.055 7.5,-16.25c1.667,-3.194 2.083,-3.125 1.25,0.209c0.556,-0.278 1.458,-0.486 2.708,-0.625c1.25,-0.139 2.431,-0.07 3.542,0.208c1.111,0.278 2.083,0.694 2.917,1.25c0.833,0.556 1.25,1.389 1.25,2.5c-4.722,10.278 -9.792,22.292 -15.209,36.042c-5.416,13.75 -10.972,27.986 -16.666,42.708c-5.695,14.722 -11.459,29.306 -17.292,43.75c-5.833,14.444 -11.667,27.361 -17.5,38.75c-5.833,11.389 -11.597,20.625 -17.292,27.708c-5.694,7.084 -11.18,10.625 -16.458,10.625c-11.389,0 -20.278,-4.583 -26.667,-13.75c-6.388,-9.166 -11.111,-20.486 -14.166,-33.958c-3.056,-13.472 -4.931,-27.986 -5.625,-43.542c-0.695,-15.555 -1.042,-29.583 -1.042,-42.083c0,-23.333 1.667,-46.042 5,-68.125c3.333,-22.083 7.014,-41.944 11.042,-59.583c4.028,-17.639 7.847,-32.361 11.458,-44.167c3.611,-11.806 5.695,-19.097 6.25,-21.875c0.278,-0.833 0.07,-1.528 -0.625,-2.083c-0.694,-0.556 -1.319,-0.834 -1.875,-0.834c-8.055,0.556 -17.083,1.528 -27.083,2.917c-10,1.389 -20.834,2.917 -32.5,4.583c-0.278,-0.833 -0.209,-2.152 0.208,-3.958c0.417,-1.806 1.111,-3.611 2.083,-5.417c0.973,-1.805 2.084,-3.541 3.334,-5.208c1.25,-1.667 2.569,-2.778 3.958,-3.333c1.945,-0.834 5.417,-1.528 10.417,-2.084c5,-0.555 10.416,-1.111 16.25,-1.666c5.833,-0.556 11.458,-1.111 16.875,-1.667c5.416,-0.556 9.653,-1.111 12.708,-1.667c0.556,0 1.528,-0.416 2.917,-1.25c1.389,-0.833 2.361,-1.944 2.916,-3.333c0.834,-3.611 2.709,-9.236 5.625,-16.875c2.917,-7.639 6.25,-15.625 10,-23.958c3.75,-8.334 7.57,-15.903 11.459,-22.709c3.889,-6.805 7.222,-11.18 10,-13.125c1.111,-0.555 2.569,-0.486 4.375,0.209c1.805,0.694 3.68,1.666 5.625,2.916c1.944,1.25 3.75,2.639 5.416,4.167c1.667,1.528 2.917,2.708 3.75,3.542c1.667,2.222 1.528,6.597 -0.416,13.125c-1.945,6.527 -4.445,13.333 -7.5,20.416c-3.056,7.084 -5.903,13.403 -8.542,18.959c-2.639,5.555 -3.819,8.472 -3.542,8.75c-0.555,0.833 -0.486,1.944 0.209,3.333c0.694,1.389 1.319,1.944 1.875,1.667c1.944,-0 6.041,-0.278 12.291,-0.834c6.25,-0.555 13.264,-1.18 21.042,-1.875c7.778,-0.694 15.486,-1.319 23.125,-1.875c7.639,-0.555 13.82,-0.833 18.542,-0.833l-0,-0.417Z" style="fill-rule:nonzero;"/><path d="M2083.07,152.917c-1.666,-1.389 -2.638,-4.514 -2.916,-9.375c-0.278,-4.861 -0,-10 0.833,-15.417c0.833,-5.417 2.083,-10.486 3.75,-15.208c1.667,-4.723 3.472,-7.778 5.417,-9.167c4.166,-1.389 8.68,-1.806 13.541,-1.25c4.862,0.556 9.237,1.875 13.125,3.958c3.889,2.084 6.875,4.861 8.959,8.334c2.083,3.472 2.569,7.43 1.458,11.875c-0.278,1.389 -0.972,3.75 -2.083,7.083c-1.111,3.333 -2.292,6.667 -3.542,10c-1.25,3.333 -2.5,6.458 -3.75,9.375c-1.25,2.917 -2.292,4.653 -3.125,5.208c-0.833,0.834 -2.708,1.32 -5.625,1.459c-2.917,0.139 -6.111,-0.07 -9.583,-0.625c-3.472,-0.556 -6.736,-1.389 -9.792,-2.5c-3.055,-1.111 -5.278,-2.361 -6.667,-3.75Zm89.167,92.916c0.556,0.556 0.695,1.528 0.417,2.917c-0.278,1.389 -0.556,2.361 -0.834,2.917c-2.222,5.833 -4.791,12.777 -7.708,20.833c-2.917,8.056 -6.042,16.458 -9.375,25.208c-3.333,8.75 -7.014,17.5 -11.042,26.25c-4.027,8.75 -8.194,16.528 -12.5,23.334c-4.305,6.805 -8.888,12.361 -13.75,16.666c-4.861,4.306 -9.93,6.459 -15.208,6.459c-7.778,-0 -14.583,-1.945 -20.417,-5.834c-5.833,-3.889 -10.694,-8.819 -14.583,-14.791c-3.889,-5.973 -6.805,-12.57 -8.75,-19.792c-1.944,-7.222 -3.055,-14.167 -3.333,-20.833c-0,-0.278 0.139,-2.848 0.416,-7.709c0.278,-4.861 0.764,-10.972 1.459,-18.333c0.694,-7.361 1.597,-15.278 2.708,-23.75c1.111,-8.472 2.361,-16.528 3.75,-24.167c1.389,-7.639 3.056,-14.166 5,-19.583c1.945,-5.417 4.028,-8.681 6.25,-9.792c1.945,-2.777 4.792,-3.889 8.542,-3.333c3.75,0.556 7.5,2.153 11.25,4.792c3.75,2.639 7.014,5.833 9.791,9.583c2.778,3.75 4.167,7.292 4.167,10.625c0.278,1.111 0.208,3.958 -0.208,8.542c-0.417,4.583 -1.042,10.208 -1.875,16.875c-0.834,6.666 -1.736,13.819 -2.709,21.458c-0.972,7.639 -1.875,14.931 -2.708,21.875c-0.833,6.944 -1.528,13.125 -2.083,18.542c-0.556,5.416 -0.695,9.097 -0.417,11.041c0,1.667 0.208,3.959 0.625,6.875c0.417,2.917 1.25,5.625 2.5,8.125c1.25,2.5 2.917,4.445 5,5.834c2.083,1.389 4.792,1.389 8.125,-0c1.667,-0.278 3.958,-2.848 6.875,-7.709c2.917,-4.861 6.111,-10.902 9.583,-18.125c3.473,-7.222 7.014,-15 10.625,-23.333c3.612,-8.333 7.014,-16.111 10.209,-23.333c3.194,-7.223 5.972,-13.473 8.333,-18.75c2.361,-5.278 3.958,-8.473 4.792,-9.584c0.555,-1.111 1.597,-1.527 3.125,-1.25c1.528,0.278 2.847,0.695 3.958,1.25Z" style="fill-rule:nonzero;"/><path d="M2361.4,253.333c1.944,-3.611 3.68,-5.555 5.208,-5.833c1.528,-0.278 2.639,0.417 3.333,2.083c0.695,1.667 0.903,3.959 0.625,6.875c-0.277,2.917 -1.111,5.625 -2.5,8.125c-1.944,2.5 -4.722,7.5 -8.333,15c-3.611,7.5 -7.847,16.111 -12.708,25.834c-4.861,9.722 -10.139,19.861 -15.834,30.416c-5.694,10.556 -11.388,20.278 -17.083,29.167c-5.694,8.889 -11.25,16.181 -16.667,21.875c-5.416,5.694 -10.208,8.542 -14.375,8.542c-4.444,-0 -9.027,-1.32 -13.75,-3.959c-4.722,-2.639 -8.958,-5.833 -12.708,-9.583c-3.75,-3.75 -6.875,-7.778 -9.375,-12.083c-2.5,-4.306 -3.75,-8.125 -3.75,-11.459c-0.833,-8.055 -0.486,-17.014 1.042,-26.875c1.528,-9.861 3.68,-19.861 6.458,-30c2.778,-10.139 5.972,-20.208 9.583,-30.208c3.612,-10 7.014,-19.167 10.209,-27.5c3.194,-8.333 5.833,-15.625 7.916,-21.875c2.084,-6.25 3.125,-10.764 3.125,-13.542c0,-1.666 -0.694,-2.916 -2.083,-3.75c-1.389,-0.833 -2.5,-1.25 -3.333,-1.25c-2.778,0 -7.014,3.611 -12.709,10.834c-5.694,7.222 -12.013,16.458 -18.958,27.708c-6.944,11.25 -13.958,23.819 -21.042,37.708c-7.083,13.889 -13.263,27.5 -18.541,40.834c-5.278,13.333 -9.167,25.555 -11.667,36.666c-2.5,11.111 -2.639,19.584 -0.417,25.417c-0.833,2.222 -3.472,3.333 -7.916,3.333c-4.445,0 -9.236,-1.111 -14.375,-3.333c-5.139,-2.222 -9.792,-5.556 -13.959,-10c-4.166,-4.444 -6.25,-10 -6.25,-16.667c0,-6.389 0.348,-14.375 1.042,-23.958c0.695,-9.583 1.667,-19.861 2.917,-30.833c1.25,-10.973 2.639,-22.153 4.166,-33.542c1.528,-11.389 3.125,-22.014 4.792,-31.875c1.667,-9.861 3.333,-18.472 5,-25.833c1.667,-7.361 3.333,-12.57 5,-15.625c2.5,-0 5.764,0.555 9.792,1.666c4.028,1.111 8.055,2.57 12.083,4.375c4.028,1.806 7.431,3.889 10.208,6.25c2.778,2.361 4.167,4.931 4.167,7.709c0,3.889 -0.903,9.444 -2.708,16.666c-1.806,7.223 -3.889,15 -6.25,23.334c-2.361,8.333 -4.445,16.458 -6.25,24.375c-1.806,7.916 -2.709,14.514 -2.709,19.791c0,1.945 0.556,3.75 1.667,5.417c0.556,0.833 1.111,1.389 1.667,1.667c1.111,-4.723 3.75,-11.598 7.916,-20.625c4.167,-9.028 9.167,-18.82 15,-29.375c5.834,-10.556 12.223,-21.389 19.167,-32.5c6.945,-11.111 13.75,-21.181 20.417,-30.209c6.666,-9.027 12.916,-16.389 18.75,-22.083c5.833,-5.694 10.555,-8.542 14.166,-8.542c3.056,0 6.528,0.834 10.417,2.5c3.889,1.667 7.5,3.959 10.833,6.875c3.334,2.917 6.181,6.25 8.542,10c2.361,3.75 3.542,7.709 3.542,11.875c-0.278,12.223 -2.709,25.695 -7.292,40.417c-4.583,14.722 -9.444,29.722 -14.583,45c-5.139,15.278 -9.584,30.347 -13.334,45.208c-3.75,14.861 -4.93,28.264 -3.541,40.209c0.278,0.555 0.972,1.111 2.083,1.666c1.111,0.556 1.945,0.556 2.5,0c7.222,-5.833 14.028,-13.541 20.417,-23.125c6.389,-9.583 12.5,-19.791 18.333,-30.625c5.833,-10.833 11.458,-21.458 16.875,-31.875c5.417,-10.416 10.764,-19.375 16.042,-26.875Z" style="fill-rule:nonzero;"/></g></svg>